<?xml version="1.0" encoding="UTF-8" standalone="no"?>
<svg
   xmlns:dc="http://purl.org/dc/elements/1.1/"
   xmlns:cc="http://creativecommons.org/ns#"
   xmlns:rdf="http://www.w3.org/1999/02/22-rdf-syntax-ns#"
   xmlns:svg="http://www.w3.org/2000/svg"
   xmlns="http://www.w3.org/2000/svg"
   version="1.1"
   width="100%"
   height="100%"
   viewBox="0 0 612 612"
   id="Capa_1"
   xml:space="preserve"><metadata
   id="metadata3182"><rdf:RDF><cc:Work
   rdf:about=""><dc:format>image/svg+xml</dc:format><dc:type
   rdf:resource="http://purl.org/dc/dcmitype/StillImage" /><dc:title></dc:title></cc:Work></rdf:RDF></metadata><defs
   id="defs3180" />
<path
   d="m 306,612 c -28.152,0 -55.284,-3.672 -81.396,-11.016 -26.112,-7.347 -50.49,-17.646 -73.134,-30.906 C 128.826,556.818 108.222,540.906 89.658,522.342 71.094,503.78 55.182,483.174 41.922,460.53 28.662,437.884 18.36,413.508 11.016,387.395 3.672,361.284 0,334.152 0,306 0,277.848 3.672,250.716 11.016,224.604 18.36,198.492 28.662,174.114 41.922,151.47 55.182,128.826 71.094,108.222 89.658,89.658 108.222,71.094 128.826,55.182 151.47,41.922 174.114,28.662 198.492,18.36 224.604,11.016 250.716,3.672 277.848,0 306,0 c 42.024,0 81.702,8.058 119.034,24.174 37.332,16.116 69.768,37.944 97.308,65.484 27.54,27.54 49.368,59.976 65.484,97.308 C 603.942,224.298 612,263.976 612,306 c 0,28.152 -3.672,55.284 -11.016,81.396 -7.347,26.109 -17.646,50.487 -30.906,73.134 -13.26,22.644 -29.172,43.248 -47.736,61.812 -18.562,18.564 -39.168,34.479 -61.812,47.736 -22.646,13.26 -47.022,23.562 -73.136,30.906 C 361.284,608.328 334.152,612 306,612 z"
   id="bg" style="fill:#000000" /><path
   d="m 462.06,253.98 h -2.445 l -83.232,49.572 c -0.813,0 -1.224,0.612 -1.224,1.836 -0.408,0.408 -0.204,1.02 0.609,1.833 L 459,397.188 c 0.816,0.816 1.428,1.227 1.836,1.227 h 1.224 c 1.227,-1.227 1.839,-2.04 1.839,-2.448 V 256.429 c -0.003,-0.817 -0.615,-1.633 -1.839,-2.449 z M 351.9,320.076 c -0.408,-1.227 -1.431,-1.428 -3.063,-0.612 l -33.66,19.584 c -4.08,2.448 -8.361,2.448 -12.852,0 l -29.376,-16.521 c -1.224,-0.816 -2.244,-0.816 -3.06,0 l -111.996,104.04 c -0.408,0.405 -0.612,1.224 -0.612,2.445 0,0.408 0.408,1.021 1.224,1.836 2.448,0.816 4.08,1.227 4.896,1.227 H 450.43 c 0.816,0 1.635,-0.408 2.448,-1.227 0,-1.632 -0.204,-2.649 -0.612,-3.06 L 351.9,320.076 z m -106.488,-9.792 c 0.408,-0.408 0.612,-1.021 0.612,-1.836 0,-1.227 -0.408,-1.836 -1.224,-1.836 l -87.516,-50.185 c -1.224,-0.408 -2.244,-0.408 -3.06,0 -0.816,0 -1.224,0.612 -1.224,1.836 v 131.58 c 0,1.227 0.612,2.04 1.836,2.448 h 1.224 c 0.816,0 1.224,-0.204 1.224,-0.612 l 88.128,-81.395 z M 453.492,179.928 H 163.404 c -2.856,0 -5.304,0.918 -7.344,2.754 -2.04,1.836 -3.06,4.386 -3.06,7.65 v 32.436 c 0,1.632 0.612,2.448 1.836,2.448 l 152.388,86.904 1.227,0.612 c 0.813,0 1.428,-0.204 1.836,-0.612 l 147.492,-86.904 c 0.813,-0.408 1.428,-0.612 1.836,-0.612 0.405,0 1.02,-0.204 1.836,-0.612 1.632,0 2.448,-0.816 2.448,-2.448 v -31.212 c 0,-3.264 -1.021,-5.814 -3.063,-7.65 -2.042,-1.836 -4.488,-2.754 -7.344,-2.754 z"
   id="env" style="fill:#ffffff" />
</svg>