<?xml version="1.0" encoding="UTF-8" standalone="no"?>
<svg
   xmlns:dc="http://purl.org/dc/elements/1.1/"
   xmlns:cc="http://creativecommons.org/ns#"
   xmlns:rdf="http://www.w3.org/1999/02/22-rdf-syntax-ns#"
   xmlns:svg="http://www.w3.org/2000/svg"
   xmlns="http://www.w3.org/2000/svg"
   version="1.1"
   width="100%"
   height="100%"
   viewBox="0 0 100 100"
   id="email_btn">
  <defs
     id="defs" />
  <circle
     cx="50"
     cy="50"
     r="50"
     id="bg"
     fill="#000000">
  </circle>
  <path
     d="m 75.5,41.5 h -0.39951 l -13.6,8.1 c -0.132843,0 -0.2,0.1 -0.2,0.3 -0.06667,0.06667 -0.03333,0.166667 0.09951,0.29951 L 75,64.9 c 0.133333,0.133333 0.233333,0.20049 0.3,0.20049 h 0.2 c 0.20049,-0.20049 0.30049,-0.333333 0.30049,-0.4 V 41.900164 C 75.8,41.766667 75.7,41.633333 75.5,41.5 z m -18,10.8 c -0.06667,-0.20049 -0.233824,-0.233333 -0.50049,-0.1 l -5.5,3.2 c -0.666667,0.4 -1.366177,0.4 -2.1,0 l -4.8,-2.69951 c -0.2,-0.133333 -0.366667,-0.133333 -0.5,0 l -18.3,17 c -0.06667,0.06618 -0.1,0.2 -0.1,0.39951 0,0.06667 0.06667,0.16683 0.2,0.3 0.4,0.133333 0.666667,0.20049 0.8,0.20049 h 46.900163 c 0.133333,0 0.267157,-0.06667 0.4,-0.20049 0,-0.266667 -0.03333,-0.432843 -0.1,-0.5 L 57.5,52.3 z M 40.1,50.7 c 0.06667,-0.06667 0.1,-0.16683 0.1,-0.3 0,-0.20049 -0.06667,-0.3 -0.2,-0.3 L 25.7,41.899837 c -0.2,-0.06667 -0.366666,-0.06667 -0.5,0 -0.133333,0 -0.2,0.1 -0.2,0.3 v 21.499999 c 0,0.200491 0.1,0.333334 0.3,0.4 h 0.2 c 0.133334,0 0.2,-0.03333 0.2,-0.1 L 40.1,50.7 z m 34,-21.3 H 26.7 c -0.466666,0 -0.866666,0.15 -1.2,0.45 -0.333333,0.3 -0.5,0.716667 -0.5,1.25 v 5.3 c 0,0.266667 0.1,0.4 0.3,0.4 l 24.9,14.2 0.20049,0.1 c 0.132843,0 0.233334,-0.03333 0.3,-0.1 l 24.1,-14.2 c 0.132843,-0.06667 0.233333,-0.1 0.3,-0.1 0.06618,0 0.166666,-0.03333 0.3,-0.1 0.266666,0 0.4,-0.133333 0.4,-0.4 v -5.1 c 0,-0.533333 -0.16683,-0.95 -0.50049,-1.25 -0.333661,-0.3 -0.733334,-0.45 -1.2,-0.45 z"
     id="env" fill="#ffffff">
     <set
        attributeName="fill" to="#ff0000" begin="btn.mouseover" end="btn.mouseout"/>
  </path>
  <circle
     cx="50"
     cy="50"
     r="50"
     id="btn"
     fill="#ffffff"
     opacity="0">
  </circle>
</svg>
