<?xml version="1.0" encoding="UTF-8" standalone="no"?>
<svg
   xmlns:dc="http://purl.org/dc/elements/1.1/"
   xmlns:cc="http://creativecommons.org/ns#"
   xmlns:rdf="http://www.w3.org/1999/02/22-rdf-syntax-ns#"
   xmlns:svg="http://www.w3.org/2000/svg"
   xmlns="http://www.w3.org/2000/svg"
   version="1.1"
   width="100%"
   height="100%"
   viewBox="0 0 50 50"
   id="facebook"
   xml:space="preserve"><metadata
   id="metadata11"><rdf:RDF><cc:Work
       rdf:about=""><dc:format>image/svg+xml</dc:format><dc:type
       rdf:resource="http://purl.org/dc/dcmitype/StillImage" /><dc:title></dc:title></cc:Work></rdf:RDF></metadata><defs
   id="defs9">
    
  </defs>
  <path
   d="M 24.826,0 C 11.137,0 0,11.137 0,24.826 0,38.514 11.137,49.652 24.826,49.652 38.514,49.652 49.652,38.514 49.652,24.826 49.652,11.137 38.516,0 24.826,0 z"
   id="bg" style="fill:#000000" /><path
   d="m 31,25.7 h -4.039 c 0,6.453 0,14.396 0,14.396 h -5.985 c 0,0 0,-7.866 0,-14.396 h -2.845 v -5.088 h 2.845 v -3.291 c 0,-2.357 1.12,-6.04 6.04,-6.04 l 4.435,0.017 v 4.939 c 0,0 -2.695,0 -3.219,0 -0.524,0 -1.269,0.262 -1.269,1.386 v 2.99 h 4.56 L 31,25.7 z"
   id="f" style="fill:#ffffff" />
</svg>