<?xml version="1.0" encoding="UTF-8" standalone="no"?>
<svg
   xmlns:dc="http://purl.org/dc/elements/1.1/"
   xmlns:cc="http://creativecommons.org/ns#"
   xmlns:rdf="http://www.w3.org/1999/02/22-rdf-syntax-ns#"
   xmlns:svg="http://www.w3.org/2000/svg"
   xmlns="http://www.w3.org/2000/svg"
   version="1.1"
   width="100%"
   height="100%"
   viewBox="0 0 100 100"
   id="instagram_hover">
  <defs
     id="defs" />
  <circle
     cx="50"
     cy="50"
     r="50"
     id="bg"
     fill="#000000">
  </circle>
  <path
     d="m 66.074044,49.996878 c 0,8.860185 -7.209697,16.074045 -16.074044,16.074045 -8.864348,0 -16.071964,-7.21386 -16.071964,-16.074045 0,-2.131273 0.42459,-4.168886 1.182191,-6.029588 h -8.772769 v 24.060075 c 0,3.109494 2.524642,5.627893 5.632055,5.627893 h 36.054729 c 3.103251,0 5.632056,-2.518399 5.632056,-5.627893 V 43.96729 h -8.776931 c 0.763845,1.860702 1.194677,3.898315 1.194677,6.029588 z M 79.386176,43.96729 v 24.060075 c 0,6.266858 -5.095074,11.359851 -11.35777,11.359851 H 31.971594 c -6.264777,0 -11.35777,-5.092993 -11.35777,-11.359851 V 43.96729 31.970554 c 0,-6.264777 5.092993,-11.35777 11.35777,-11.35777 h 36.05473 c 6.264777,0 11.359852,5.092993 11.359852,11.35777 V 43.96729 z m -6.799677,-6.624845 0,-8.670785 0,-1.290419 -1.296663,0.0042 -8.666622,0.02706 0.0333,9.963285 z m -22.58858,22.9986 c 5.700739,0 10.34833,-4.639265 10.34833,-10.344167 0,-2.251989 -0.736788,-4.331229 -1.956443,-6.029588 -1.879433,-2.605814 -4.934813,-4.314579 -8.385644,-4.314579 -3.452911,0 -6.50621,1.706684 -8.389806,4.312498 -1.223816,1.698358 -1.954361,3.777598 -1.956441,6.029588 -0.0062,5.704902 4.637184,10.346248 10.340003,10.346248 z"
     id="camera" fill="#ff0000">
  </path>
</svg>
