<?xml version="1.0" encoding="UTF-8" standalone="no"?>
<svg
   xmlns:dc="http://purl.org/dc/elements/1.1/"
   xmlns:cc="http://creativecommons.org/ns#"
   xmlns:rdf="http://www.w3.org/1999/02/22-rdf-syntax-ns#"
   xmlns:svg="http://www.w3.org/2000/svg"
   xmlns="http://www.w3.org/2000/svg"
   version="1.1"
   width="100%"
   height="100%"
   viewBox="0 0 50 50"
   id="instagram_hover"
   xml:space="preserve"><metadata
   id="metadata3754"><rdf:RDF><cc:Work
   rdf:about=""><dc:format>image/svg+xml</dc:format><dc:type
   rdf:resource="http://purl.org/dc/dcmitype/StillImage" /><dc:title></dc:title></cc:Work></rdf:RDF></metadata><defs
   id="defs" />
<path
   d="M 24.826,0 C 11.137,0 0,11.137 0,24.826 0,38.514 11.137,49.652 24.826,49.652 38.514,49.652 49.652,38.514 49.652,24.826 49.652,11.137 38.516,0 24.826,0 z"
   id="path3773" 
   style="fill:#000000" /><path
   d="m 32.549,24.826 c 0,4.257 -3.464,7.723 -7.723,7.723 -4.259,0 -7.722,-3.466 -7.722,-7.723 0,-1.024 0.204,-2.003 0.568,-2.897 h -4.215 v 11.56 c 0,1.494 1.213,2.704 2.706,2.704 h 17.323 c 1.491,0 2.706,-1.21 2.706,-2.704 v -11.56 h -4.217 c 0.367,0.894 0.574,1.873 0.574,2.897 z m 6.396,-2.897 v 11.56 c 0,3.011 -2.448,5.458 -5.457,5.458 H 16.164 c -3.01,0 -5.457,-2.447 -5.457,-5.458 v -11.56 -5.764 c 0,-3.01 2.447,-5.457 5.457,-5.457 h 17.323 c 3.01,0 5.458,2.447 5.458,5.457 v 5.764 z m -3.267,-3.183 0,-4.166 0,-0.62 -0.623,0.002 -4.164,0.013 0.016,4.787 z m -10.853,11.05 c 2.739,0 4.972,-2.229 4.972,-4.97 0,-1.082 -0.354,-2.081 -0.94,-2.897 -0.903,-1.252 -2.371,-2.073 -4.029,-2.073 -1.659,0 -3.126,0.82 -4.031,2.072 -0.588,0.816 -0.939,1.815 -0.94,2.897 -0.003,2.741 2.228,4.971 4.968,4.971 z"
   id="path3718"
   style="fill:#ff0000" />
</svg>