<?xml version="1.0" encoding="UTF-8" standalone="no"?>
<!-- Created with Inkscape (http://www.inkscape.org/) -->

<svg
   width="50.125999mm"
   height="42.919998mm"
   viewBox="0 0 50.126 42.919998"
   version="1.1"
   id="svg5"
   xmlns="http://www.w3.org/2000/svg"
   xmlns:svg="http://www.w3.org/2000/svg">
  <defs
     id="defs2">
    <clipPath
       clipPathUnits="userSpaceOnUse"
       id="clipPath73">
      <path
         d="M 2,9 H 282 V 337 H 2 Z"
         id="path71" />
    </clipPath>
    <clipPath
       clipPathUnits="userSpaceOnUse"
       id="clipPath77">
      <path
         d="M 0,0 H 283.4645 V 340.1575 H 0 Z"
         id="path75" />
    </clipPath>
  </defs>
  <g
     id="layer5"
     style="display:inline" />
  <g
     id="layer1"
     style="display:none">
    <g
       id="g1777"
       transform="matrix(1.5846083,0,0,1.5846083,-17.103593,-30.561538)">
      <path
         d="m 25.95493,19.886525 c -0.655776,-0.0036 -1.301072,0.368343 -1.627155,0.937271 L 11.638358,42.963453 c -0.322358,0.563339 -0.320146,1.298741 0.0059,1.860335 0.325617,0.561594 0.963231,0.928191 1.612603,0.927726 h 26.70901 c 0.662528,0 1.311433,-0.383361 1.631114,-0.964161 0.319681,-0.580223 0.29698,-1.333788 -0.05681,-1.893986 L 27.517942,20.751036 C 27.184988,20.227161 26.575663,19.890134 25.95493,19.886525 Z"
         style="fill:#ffffff;fill-opacity:1;fill-rule:nonzero;stroke:none;stroke-width:0.116417"
         id="path83" />
      <path
         d="m 24.127305,30.200808 c -0.115485,-0.0013 -0.233764,0.01502 -0.34925,0.05088 -0.101399,0.03224 -0.19558,0.0801 -0.280564,0.136439 l 0.348784,0.433884 c 0.07276,0.08999 0.06182,0.219097 -0.02549,0.289647 -0.08731,0.07043 -0.216885,0.05588 -0.289645,-0.03411 l -0.326083,-0.408853 c -0.140515,0.194182 -0.224219,0.431554 -0.232833,0.681268 -0.01094,0.05588 -0.01548,0.107686 -0.0081,0.150527 0.01409,0.09686 0.03818,0.188245 0.06496,0.269157 4.62e-4,3.3e-4 -4.62e-4,0.0023 0,0.0033 0.03644,0.107221 0.07823,0.195466 0.113739,0.240983 l 0.0027,-0.0026 c 0.03364,0.08056 0.07963,0.155532 0.135975,0.221074 l -0.01409,0.621663 0.03411,0.107686 0.05681,0.04284 0.105124,0.01409 0.14459,-0.116417 0.419682,0.434237 0.09965,0.08778 0.07637,0.0227 0.0851,-0.01129 0.06275,-0.0369 0.147267,-0.187314 0.08824,-0.124565 0.300587,0.337375 -0.635751,0.890822 0.0369,2.005974 -0.357515,1.205959 -0.297794,0.23563 -0.09919,0.479751 -0.831332,0.459264 -0.06275,-0.257862 -0.683482,-0.235511 -0.434235,-0.60758 -2.341139,-0.621198 -2.83719,5.152834 7.360211,0.0227 -0.79175,-2.931255 1.052756,-0.644018 0.13644,0.210134 0.882205,-0.408856 0.06228,-0.113157 0.06275,-0.420265 1.06684,-0.544711 -0.459729,1.00444 -0.249596,2.752207 -0.928188,0.420149 -0.181494,0.632607 3.189233,-0.01686 c 0,0 -0.105474,-0.911777 -0.204194,-1.606083 -0.09954,-0.694426 -0.224218,-1.390248 -0.224218,-1.390248 l 1.155085,-1.844508 1.287918,2.241489 1.143678,1.8473 -0.610256,0.297792 -0.144709,0.445642 1.858593,-0.01129 1.265567,-1.339256 -0.335049,-0.570325 -0.161469,-0.110481 -0.482546,-0.210131 0.210131,-0.187315 -1.949515,-1.586178 -0.819921,-2.653018 0.201402,-0.150061 0.323404,0.224219 0.817129,-0.420265 0.01142,-0.473814 1.112361,-0.624344 -0.218282,-0.343428 -1.115152,0.570791 -0.371953,-0.25833 0.246919,-0.09954 -0.48243,-1.401539 c 0,0 -0.660314,-0.307458 -1.168705,-0.493958 -0.50886,-0.185453 -1.027379,-0.297795 -1.027379,-0.297795 l -2.147772,0.928076 -0.204195,-0.212811 c 0.04738,-0.505596 -0.02082,-0.922254 -0.255532,-1.319699 -0.246454,-0.464736 -0.63936,-0.833544 -1.129125,-0.845302 z m 0.07369,0.854034 c 0.24366,0 0.442383,0.192786 0.442383,0.431092 0,0.238653 -0.198723,0.434234 -0.442383,0.434234 -0.243777,0 -0.439822,-0.195581 -0.439822,-0.434234 0,-0.238306 0.196045,-0.431092 0.439822,-0.431092 z m 3.612061,2.0572 1.177321,0.224218 0.238306,1.030053 0.346572,-0.164611 0.06228,0.138649 -0.161934,0.283827 v 0.272415 l -0.311998,0.175903 c 0,0 -1.350548,-1.960454 -1.350547,-1.960454 z m -2.170589,1.94637 0.856826,1.052756 -0.201518,0.507926 -1.203283,0.746344 -0.110479,-0.09965 0.533421,-0.993151 c 0,0 0.125033,-1.214225 0.125033,-1.214225 z m 6.018276,5.504294 0.743088,0.394769 -0.138769,0.176022 -0.743556,-0.360657 c 0,0 0.139237,-0.210134 0.139237,-0.210134 z m -5.311977,0.372068 0.471138,0.794429 -0.360192,-0.01409 -0.309668,-0.644364 c 0,0 0.198722,-0.135977 0.198722,-0.135977 z m 5.061798,0.01409 0.706764,0.357397 -0.135973,0.150529 -0.669864,-0.297795 c 0,0 0.09907,-0.210131 0.09907,-0.210131 z m -5.521527,0.210131 0.312345,0.595703 h -0.235511 l -0.261004,-0.524806 c 0,0 0.18417,-0.0709 0.18417,-0.0709 z m -0.422476,0.147266 0.249595,0.507926 -0.198722,0.02551 -0.24692,-0.471138 c 0,0 0.196047,-0.06228 0.196047,-0.06228 z m 5.745745,0.07369 0.621199,0.309669 -0.124565,0.135976 -0.60758,-0.283707 c 0,0 0.110946,-0.161938 0.110946,-0.161938 z"
         style="fill:#000000;fill-opacity:1;fill-rule:nonzero;stroke:none;stroke-width:0.116417"
         id="path117" />
      <path
         d="m 25.95493,19.886525 c -0.655776,-0.0036 -1.301072,0.368343 -1.627155,0.937271 L 11.638358,42.963453 c -0.322358,0.563339 -0.320146,1.298741 0.0059,1.860335 0.325617,0.561594 0.963231,0.928191 1.612603,0.927726 h 26.70901 c 0.662528,0 1.311433,-0.383361 1.631114,-0.964161 0.319681,-0.580223 0.29698,-1.333788 -0.05681,-1.893986 L 27.517942,20.751036 C 27.184988,20.227161 26.575663,19.890134 25.95493,19.886525 Z"
         style="fill:#000000;fill-opacity:0;fill-rule:nonzero;stroke:none;stroke-width:0.116417"
         id="path121" />
      <g
         transform="matrix(0.11641666,0,0,0.11641666,10.238681,19.156185)"
         id="g125"
         style="stroke:#000000;stroke-width:10.3078;stroke-linecap:round;stroke-linejoin:round;stroke-miterlimit:4;stroke-dasharray:none;stroke-opacity:1;paint-order:fill markers stroke">
        <path
           d="m 135,6.273468 c -5.633,-0.031006 -11.176,3.164001 -13.977,8.050992 l -109,190.17604 c -2.769,4.839 -2.75,11.156 0.051,15.98 2.797,4.824 8.274,7.973 13.852,7.969 h 229.426 c 5.691,0 11.265,-3.293 14.011,-8.282 2.746,-4.984 2.551,-11.457 -0.488,-16.269 L 148.426,13.69946 C 145.566,9.199463 140.332,6.304474 135,6.273468 Z"
           style="fill:none;stroke:#000000;stroke-width:10.3078;stroke-linecap:round;stroke-linejoin:round;stroke-miterlimit:4;stroke-dasharray:none;stroke-opacity:1;paint-order:fill markers stroke"
           id="path123" />
      </g>
      <path
         d="m 25.95493,19.886525 c -0.655776,-0.0036 -1.301072,0.368343 -1.627155,0.937271 L 11.638358,42.963453 c -0.322358,0.563339 -0.320146,1.298741 0.0059,1.860335 0.325617,0.561594 0.963231,0.928191 1.612603,0.927726 h 26.70901 c 0.662528,0 1.311433,-0.383361 1.631114,-0.964161 0.319681,-0.580223 0.29698,-1.333788 -0.05681,-1.893986 L 27.517942,20.751036 C 27.184988,20.227161 26.575663,19.890134 25.95493,19.886525 Z m 0.06682,5.468906 10.558874,16.670749 H 16.46965 c 0,0 9.552105,-16.670749 9.552105,-16.670749 z"
         style="display:inline;fill:#ff0000;fill-opacity:1;fill-rule:nonzero;stroke:none;stroke-width:0.116417"
         id="path119" />
    </g>
  </g>
  <g
     id="g2439"
     style="display:inline">
    <g
       id="g2489">
      <path
         d="M 24.024805,0.95081457 C 22.985656,0.94510998 21.963115,1.5344939 21.446401,2.436022 L 1.3386457,37.518706 c -0.51081118,0.892672 -0.50730602,2.057996 0.00935,2.947903 0.5159754,0.889906 1.5263438,1.470819 2.5553441,1.470082 H 46.226659 c 1.049847,0 2.078108,-0.607477 2.584677,-1.527818 0.506569,-0.919426 0.470597,-2.113531 -0.09002,-3.001226 L 26.501566,2.3207259 C 25.973965,1.4905892 25.008423,0.95653342 24.024805,0.95081457 Z"
         style="fill:#ffffff;fill-opacity:1;fill-rule:nonzero;stroke:none;stroke-width:0.184475"
         id="path2425" />
      <path
         d="m 21.128735,17.294913 c -0.182999,-0.0021 -0.370425,0.0238 -0.553425,0.08062 -0.160677,0.05109 -0.309917,0.126927 -0.444584,0.216202 l 0.552686,0.687536 c 0.115296,0.142599 0.09796,0.347183 -0.04039,0.458977 -0.138353,0.111604 -0.343678,0.08855 -0.458974,-0.05405 l -0.516714,-0.647872 c -0.222661,0.307702 -0.355299,0.683844 -0.368949,1.079543 -0.01734,0.08855 -0.02453,0.17064 -0.01284,0.238526 0.02233,0.153485 0.0605,0.298294 0.102937,0.426508 7.32e-4,5.23e-4 -7.32e-4,0.0036 0,0.0052 0.05774,0.169903 0.123964,0.309737 0.180231,0.381863 l 0.0043,-0.0041 c 0.05331,0.127656 0.126182,0.246458 0.215467,0.350316 l -0.02233,0.985092 0.05405,0.17064 0.09002,0.06789 0.166581,0.02233 0.229118,-0.184475 0.665032,0.688095 0.157906,0.139097 0.121017,0.03597 0.13485,-0.01789 0.09943,-0.05847 0.23336,-0.29682 0.139826,-0.197386 0.476313,0.534607 -1.007416,1.411604 0.05847,3.178683 -0.566522,1.910972 -0.471886,0.373382 -0.157178,0.760217 -1.317335,0.727754 -0.09943,-0.408611 -1.083052,-0.373192 -0.688092,-0.962777 -3.709788,-0.984355 -4.4958352,8.165223 11.6630512,0.03597 -1.254613,-4.644891 1.668206,-1.020516 0.216203,0.33298 1.39795,-0.647877 0.09869,-0.179309 0.09943,-0.665956 1.690524,-0.863153 -0.72849,1.591644 -0.395512,4.36117 -1.470815,0.665771 -0.287597,1.002435 5.053685,-0.02672 c 0,0 -0.167135,-1.444809 -0.323567,-2.545012 -0.157732,-1.100394 -0.355298,-2.202999 -0.355298,-2.202999 l 1.830358,-2.922823 2.040845,3.551883 1.812282,2.927246 -0.967017,0.471884 -0.229307,0.706168 2.945142,-0.01789 2.005428,-2.122196 -0.530922,-0.903742 -0.255865,-0.175069 -0.764646,-0.332975 0.332975,-0.296821 -3.089217,-2.513471 -1.299254,-4.203995 0.319143,-0.237787 0.512469,0.355299 1.294829,-0.665956 0.0181,-0.750809 1.762657,-0.989341 -0.345892,-0.544199 -1.767079,0.90448 -0.589399,-0.409351 0.391269,-0.157732 -0.764462,-2.220891 c 0,0 -1.046339,-0.4872 -1.85194,-0.78273 -0.806344,-0.29387 -1.627993,-0.471888 -1.627993,-0.471888 l -3.403377,1.470637 -0.32357,-0.337222 c 0.07508,-0.801172 -0.03299,-1.461412 -0.404918,-2.091206 -0.390533,-0.736425 -1.013135,-1.320841 -1.78922,-1.339473 z m 0.11677,1.353309 c 0.386105,0 0.701003,0.305491 0.701003,0.683112 0,0.378172 -0.314898,0.688091 -0.701003,0.688091 -0.386292,0 -0.696946,-0.309919 -0.696946,-0.688091 0,-0.377621 0.310654,-0.683112 0.696946,-0.683112 z m 5.723701,3.259857 1.865593,0.355297 0.377622,1.632231 0.549181,-0.260844 0.09869,0.219704 -0.256602,0.449755 v 0.431671 l -0.494395,0.278737 c 0,0 -2.140089,-3.106551 -2.140088,-3.106551 z m -3.439533,3.084234 1.357734,1.668206 -0.319327,0.804863 -1.906733,1.182663 -0.175066,-0.157906 0.845264,-1.573755 c 0,0 0.198128,-1.924071 0.198128,-1.924071 z m 9.53661,8.72215 1.177504,0.625554 -0.219895,0.278926 -1.178245,-0.5715 c 0,0 0.220636,-0.33298 0.220636,-0.33298 z m -8.417403,0.589582 0.746569,1.258858 -0.570763,-0.02233 -0.490702,-1.021064 c 0,0 0.314896,-0.215471 0.314896,-0.215471 z m 8.020967,0.02233 1.119945,0.566334 -0.215464,0.23853 -1.061472,-0.471889 c 0,0 0.156987,-0.332975 0.156987,-0.332975 z m -8.749457,0.332975 0.494944,0.943956 h -0.373192 l -0.413589,-0.831612 c 0,0 0.291837,-0.112349 0.291837,-0.112349 z m -0.669459,0.233359 0.39551,0.804864 -0.314896,0.04042 -0.391272,-0.746569 c 0,0 0.310658,-0.09869 0.310658,-0.09869 z m 9.104755,0.11677 0.984357,0.490704 -0.197386,0.215469 -0.962777,-0.449565 c 0,0 0.175806,-0.256608 0.175806,-0.256608 z"
         style="fill:#ff0000;fill-opacity:1;fill-rule:nonzero;stroke:none;stroke-width:0.184475"
         id="path2427" />
      <path
         d="M 24.024805,0.95081457 C 22.985656,0.94510998 21.963115,1.5344939 21.446401,2.436022 L 1.3386457,37.518706 c -0.51081118,0.892672 -0.50730602,2.057996 0.00935,2.947903 0.5159754,0.889906 1.5263438,1.470819 2.5553441,1.470082 H 46.226659 c 1.049847,0 2.078108,-0.607477 2.584677,-1.527818 0.506569,-0.919426 0.470597,-2.113531 -0.09002,-3.001226 L 26.501566,2.3207259 C 25.973965,1.4905892 25.008423,0.95653342 24.024805,0.95081457 Z"
         style="fill:#000000;fill-opacity:0;fill-rule:nonzero;stroke:none;stroke-width:0.184475"
         id="path2429" />
      <g
         transform="matrix(0.18447481,0,0,0.18447481,-0.87929411,-0.20648825)"
         id="g2433"
         style="stroke:#000000;stroke-width:10.3078;stroke-linecap:round;stroke-linejoin:round;stroke-miterlimit:4;stroke-dasharray:none;stroke-opacity:1;paint-order:fill markers stroke">
        <path
           d="m 135,6.273468 c -5.633,-0.031006 -11.176,3.164001 -13.977,8.050992 l -109,190.17604 c -2.769,4.839 -2.75,11.156 0.051,15.98 2.797,4.824 8.274,7.973 13.852,7.969 h 229.426 c 5.691,0 11.265,-3.293 14.011,-8.282 2.746,-4.984 2.551,-11.457 -0.488,-16.269 L 148.426,13.69946 C 145.566,9.199463 140.332,6.304474 135,6.273468 Z"
           style="fill:none;stroke:#000000;stroke-width:10.3078;stroke-linecap:round;stroke-linejoin:round;stroke-miterlimit:4;stroke-dasharray:none;stroke-opacity:1;paint-order:fill markers stroke"
           id="path2431" />
      </g>
      <path
         d="M 24.024805,0.95081457 C 22.985656,0.94510998 21.963115,1.5344939 21.446401,2.436022 L 1.3386457,37.518706 c -0.51081118,0.892672 -0.50730602,2.057996 0.00935,2.947903 0.5159754,0.889906 1.5263438,1.470819 2.5553441,1.470082 H 46.226659 c 1.049847,0 2.078108,-0.607477 2.584677,-1.527818 0.506569,-0.919426 0.470597,-2.113531 -0.09002,-3.001226 L 26.501566,2.3207259 C 25.973965,1.4905892 25.008423,0.95653342 24.024805,0.95081457 Z M 24.130688,9.6168884 40.862367,36.033496 H 8.9943511 c 0,0 15.1363449,-26.4166076 15.1363449,-26.4166076 z"
         style="display:inline;fill:#000000;fill-opacity:1;fill-rule:nonzero;stroke:none;stroke-width:0.184475"
         id="path2435" />
    </g>
  </g>
</svg>
