<?xml version="1.0" encoding="UTF-8" standalone="no"?>
<svg
   xmlns:dc="http://purl.org/dc/elements/1.1/"
   xmlns:cc="http://creativecommons.org/ns#"
   xmlns:rdf="http://www.w3.org/1999/02/22-rdf-syntax-ns#"
   xmlns:svg="http://www.w3.org/2000/svg"
   xmlns="http://www.w3.org/2000/svg"
   version="1.1"
   width="100%"
   height="100%"
   viewBox="0 0 50 50"
   id="mixcloud"
   xml:space="preserve"
   style="display:inline"><metadata
   id="metadata5703"><rdf:RDF><cc:Work
   rdf:about=""><dc:format>image/svg+xml</dc:format><dc:type
   rdf:resource="http://purl.org/dc/dcmitype/StillImage" /><dc:title></dc:title></cc:Work></rdf:RDF></metadata>
   <defs id="defs" /><path 
   id="path5710" style="fill:#000000" 
   d="M 24.826,0 C 11.137,0 0,11.137 0,24.826 0,38.514 11.137,49.652 24.826,49.652 38.514,49.652 49.652,38.514 49.652,24.826 49.652,11.137 38.516,0 24.826,0 z"/><path 
   id="cloud" style="fill:#ffffff"
   d="m 38.65625,20.1875 a 0.95722084,0.95722084 0 0 0 -0.5625,1.625 c 1.394661,1.545719 2.25,3.555536 2.25,5.78125 0,1.826464 -0.558356,3.534497 -1.53125,4.9375 a 0.95722084,0.95722084 0 1 0 1.5625,1.0625 c 1.183606,-1.706869 1.90625,-3.770484 1.90625,-6 0,-2.719584 -1.058469,-5.219005 -2.75,-7.09375 a 0.95722084,0.95722084 0 0 0 -0.875,-0.3125 z m -2.875,1.6875 A 0.94512728,0.94512728 0 0 0 35.125,23.5625 c 1.121474,0.998653 1.84375,2.421847 1.84375,4.03125 0,1.220879 -0.409774,2.339118 -1.09375,3.25 a 0.94512728,0.94512728 0 1 0 1.5,1.125 c 0.913862,-1.21703 1.46875,-2.729989 1.46875,-4.375 0,-2.173471 -0.971154,-4.135167 -2.46875,-5.46875 a 0.94512728,0.94512728 0 0 0 -0.59375,-0.25 z M 23.65625,15.5 c -3.577498,0 -6.616515,2.403384 -7.625,5.71875 -0.08149,-0.0036 -0.167659,0 -0.25,0 -2.96428,0 -5.40625,2.380573 -5.40625,5.3125 0,2.931927 2.44197,5.3125 5.40625,5.3125 0.02052,0 0.04203,2.28e-4 0.0625,0 0.03071,-3.41e-4 0.06316,8.5e-4 0.09375,0 l 7.71875,0 7.71875,0 a 0.88098711,0.88098711 0 0 0 0.15625,-0.03125 c 0.03198,0 0.06192,7.07e-4 0.09375,0 a 0.88098711,0.88098711 0 0 0 0.09375,-0.03125 c 2.242661,-0.101449 4.0625,-1.921269 4.0625,-4.1875 0,-2.299402 -1.868299,-4.198357 -4.15625,-4.25 C 31.465384,18.998008 27.957541,15.5 23.65625,15.5 z" />
</svg>