<?xml version="1.0" encoding="UTF-8" standalone="no"?>
<svg
   xmlns:dc="http://purl.org/dc/elements/1.1/"
   xmlns:cc="http://creativecommons.org/ns#"
   xmlns:rdf="http://www.w3.org/1999/02/22-rdf-syntax-ns#"
   xmlns:svg="http://www.w3.org/2000/svg"
   xmlns="http://www.w3.org/2000/svg"
   version="1.1"
   width="100%"
   height="100%"
   viewBox="0 0 100 100"
   id="mixcloud_btn">
  <defs
     id="defs" />
  <circle
     cx="50"
     cy="50"
     r="50"
     id="bg"
     fill="#000000">
  </circle>
  <path
     d="m 78.303575,39.049135 a 2.1976393,2.2610846 0 0 0 -1.291418,3.838469 c 3.20194,3.651197 5.165673,8.398654 5.165673,13.656091 0,4.314355 -1.281904,8.348959 -3.515527,11.663041 a 2.1976393,2.2610846 0 1 0 3.587272,2.509768 c 2.717386,-4.031855 4.376471,-8.906391 4.376471,-14.172809 0,-6.424023 -2.43009,-12.327992 -6.313599,-16.756393 a 2.1976393,2.2610846 0 0 0 -2.008872,-0.738167 z m -6.600579,3.986102 a 2.1698742,2.232518 0 0 0 -1.506653,3.986102 c 2.574739,2.358954 4.23298,5.720729 4.23298,9.522356 0,2.883881 -0.940783,5.525312 -2.511091,7.676938 a 2.1698742,2.232518 0 1 0 3.443781,2.657402 c 2.098094,-2.874789 3.372037,-6.448603 3.372037,-10.33434 0,-5.134031 -2.229628,-9.767822 -5.667891,-12.917924 A 2.1698742,2.232518 0 0 0 71.702996,43.035237 z M 43.865766,27.976628 c -8.213414,0 -15.190554,5.677117 -17.505888,13.508459 -0.187089,-0.0084 -0.38492,0 -0.573962,0 -6.805555,0 -12.411962,5.623233 -12.411962,12.54884 0,6.925607 5.606407,12.548841 12.411962,12.548841 0.04711,0 0.09649,5.39e-4 0.143491,0 0.07051,-8.05e-4 0.145005,0.002 0.215236,0 l 17.721123,0 17.721122,0 a 2.0226178,2.0810103 0 0 0 0.358728,-0.07382 c 0.07342,0 0.142159,0.0016 0.215237,0 a 2.0226178,2.0810103 0 0 0 0.215236,-0.07382 c 5.148822,-0.239637 9.326907,-4.538297 9.326907,-9.891439 0,-5.431497 -4.289341,-9.917086 -9.542143,-10.039073 C 61.794397,36.239394 53.740903,27.976628 43.865766,27.976628 z"
     id="env" fill="#ffffff">
     <set
        attributeName="fill" to="#ff0000" begin="btn.mouseover" end="btn.mouseout"/>
  </path>
  <circle
     cx="50"
     cy="50"
     r="50"
     id="btn"
     fill="#ffffff"
     opacity="0">
  </circle>
</svg>
