<?xml version="1.0" encoding="UTF-8" standalone="no"?>
<svg
   xmlns:dc="http://purl.org/dc/elements/1.1/"
   xmlns:cc="http://creativecommons.org/ns#"
   xmlns:rdf="http://www.w3.org/1999/02/22-rdf-syntax-ns#"
   xmlns:svg="http://www.w3.org/2000/svg"
   xmlns="http://www.w3.org/2000/svg"
   version="1.1"
   width="100%"
   height="100%"
   viewBox="0 0 100 100"
   id="soundcloud_hover">
  <defs
     id="defs" />
  <circle
     cx="50"
     cy="50"
     r="50"
     id="bg"
     fill="#000000">
  </circle>
  <path
     d="m 80.872,67.25 c 0,0 -28.909,0.003 -28.937,0 -0.625,-0.062 -1.121,-0.559 -1.127,-1.198 0,0 0,-33.131 0,-33.132 0.006,-0.609 0.215,-0.922 1.004,-1.227 2.025,-0.785 4.322,-1.248 6.676,-1.248 9.627,0 17.515,7.38 18.347,16.787 1.242,-0.52 2.606,-0.81 4.037,-0.81 5.767,0 10.438,4.674 10.438,10.439 0.001,5.765 -4.671,10.389 -10.438,10.389 z M 49.825,66.092 V 66.09 66.082 c -0.013,0.631 -0.525,1.146 -1.15,1.146 -0.627,0 -1.143,-0.515 -1.151,-1.138 l -0.232,-4.209 -0.238,-4.325 0.469,-23.397 0.002,-0.118 c 0.004,-0.356 0.17,-0.674 0.427,-0.885 0.197,-0.164 0.45,-0.262 0.725,-0.262 0.214,0 0.414,0.061 0.585,0.165 0.33,0.201 0.559,0.565 0.565,0.98 l 0.509,23.518 -0.511,8.535 z m -3.593,-0.738 -0.045,0.854 c -0.005,0.295 -0.13,0.563 -0.324,0.758 -0.195,0.193 -0.461,0.314 -0.753,0.314 -0.329,0 -0.625,-0.152 -0.824,-0.39 -0.146,-0.176 -0.239,-0.399 -0.25,-0.641 -0.002,-0.012 -0.003,-0.023 -0.003,-0.037 0,0 -0.408,-8.654 -0.408,-8.667 l 0.404,-21.352 0.004,-0.203 c 0.005,-0.377 0.202,-0.708 0.497,-0.899 0.167,-0.11 0.365,-0.175 0.58,-0.175 0.218,0 0.424,0.068 0.595,0.184 0.285,0.193 0.476,0.519 0.482,0.889 l 0.452,21.562 -0.407,7.803 z m -3.698,0.916 v -0.006 c -0.011,0.561 -0.453,1 -1.005,1 -0.551,0 -0.994,-0.439 -1.005,-0.994 l -0.449,-8.719 0.449,-18.119 c 0.011,-0.561 0.454,-1 1.005,-1 0.552,0 0.994,0.44 1.005,1 l 0.503,18.121 -0.503,8.717 z m -3.626,0.055 v -0.007 c -0.014,0.519 -0.423,0.929 -0.932,0.929 -0.511,0 -0.92,-0.41 -0.931,-0.924 l -0.493,-8.773 0.49,-18.805 c 0.014,-0.52 0.423,-0.927 0.934,-0.927 0.509,0 0.918,0.406 0.932,0.925 l 0.555,18.807 -0.555,8.775 z m -3.597,0.077 c -0.014,0.478 -0.393,0.853 -0.859,0.853 -0.47,0 -0.846,-0.375 -0.858,-0.849 l -0.536,-8.858 0.534,-19.297 c 0.015,-0.479 0.391,-0.855 0.86,-0.855 0.467,0 0.846,0.375 0.859,0.855 l 0.603,19.298 -0.603,8.853 z m -3.571,0.06 v -0.005 c -0.018,0.438 -0.362,0.779 -0.786,0.779 -0.427,0 -0.773,-0.342 -0.788,-0.775 l -0.577,-8.914 c 0,0 0.577,-18.667 0.577,-18.669 0.015,-0.438 0.361,-0.781 0.788,-0.781 0.424,0 0.769,0.343 0.786,0.781 l 0.652,18.669 -0.652,8.915 z M 28.145,66.6 v -0.005 c -0.018,0.398 -0.333,0.708 -0.716,0.708 -0.384,0 -0.698,-0.31 -0.713,-0.705 l -0.622,-9.007 c 0,0 0.619,-17.229 0.619,-17.23 0.018,-0.397 0.332,-0.708 0.716,-0.708 0.383,0 0.698,0.311 0.716,0.708 l 0.701,17.23 -0.701,9.009 z m -3.463,0.007 v -0.004 c -0.021,0.355 -0.302,0.636 -0.643,0.636 -0.344,0 -0.625,-0.28 -0.644,-0.634 l -0.661,-9.062 0.661,-14.024 c 0.019,-0.357 0.3,-0.636 0.644,-0.636 0.341,0 0.622,0.279 0.643,0.635 l 0.75,14.025 -0.75,9.064 z m -3.489,-0.003 c -0.021,0.318 -0.268,0.562 -0.57,0.562 -0.305,0 -0.551,-0.243 -0.571,-0.562 l -0.706,-9.063 0.706,-8.619 c 0.021,-0.321 0.267,-0.563 0.571,-0.563 0.303,0 0.549,0.242 0.57,0.56 l 0.801,8.623 -0.801,9.062 z m -3.461,-0.075 c -0.024,0.277 -0.238,0.488 -0.497,0.488 -0.264,0 -0.479,-0.211 -0.5,-0.488 l -0.748,-8.989 0.748,-9.292 c 0.021,-0.28 0.236,-0.49 0.5,-0.49 0.259,0 0.473,0.21 0.497,0.487 l 0.85,9.294 -0.85,8.99 z m -3.434,-0.277 c -0.026,0.241 -0.205,0.415 -0.426,0.415 -0.224,0 -0.402,-0.174 -0.425,-0.417 l -0.792,-8.712 c 0,0 0.792,-9.043 0.792,-9.044 0.022,-0.241 0.201,-0.416 0.425,-0.416 0.221,0 0.399,0.175 0.426,0.416 l 0.899,9.044 -0.899,8.714 z m -3.405,-1.261 c -0.03,0.2 -0.176,0.342 -0.354,0.342 -0.18,0 -0.328,-0.144 -0.353,-0.343 l -0.834,-7.454 0.834,-7.622 c 0.024,-0.199 0.173,-0.344 0.353,-0.344 0.179,0 0.324,0.141 0.354,0.344 l 0.948,7.622 -0.948,7.455 z M 7.739,62.171 C 7.712,62.364 7.573,62.5 7.399,62.5 7.224,62.5 7.084,62.364 7.06,62.169 L 6.439,57.536 7.06,52.823 c 0.023,-0.196 0.164,-0.333 0.339,-0.333 0.174,0 0.313,0.136 0.34,0.33 l 0.736,4.717 -0.736,4.634 z"
     id="env" fill="#ff0000">
  </path>
</svg>
