<?xml version="1.0" encoding="UTF-8" standalone="no"?>
<svg
   xmlns:dc="http://purl.org/dc/elements/1.1/"
   xmlns:cc="http://creativecommons.org/ns#"
   xmlns:rdf="http://www.w3.org/1999/02/22-rdf-syntax-ns#"
   xmlns:svg="http://www.w3.org/2000/svg"
   xmlns="http://www.w3.org/2000/svg"
   version="1.1"
   width="100%"
   height="100%"
   viewBox="0 0 100 100"
   id="twitter_hover">
  <defs
     id="defs" />
  <circle
     cx="50"
     cy="50"
     r="50"
     id="bg"
     fill="#000000">
  </circle>
  <path
     d="m 72.310223,38.556359 c 0.02216,0.495492 0.03424,0.995012 0.03424,1.494532 0,15.209175 -11.573556,32.740715 -32.748772,32.740715 -6.499803,0 -12.55044,-1.899383 -17.642321,-5.166405 0.900344,0.106752 1.816803,0.161135 2.745346,0.161135 5.39401,0 10.354969,-1.840973 14.294731,-4.926718 -5.035484,-0.09265 -9.287446,-3.420101 -10.751765,-7.994334 0.700939,0.132937 1.424035,0.207462 2.163244,0.207462 1.049395,0 2.068577,-0.136965 3.033375,-0.400825 -5.265101,-1.055437 -9.231048,-5.70621 -9.231048,-11.285526 0,-0.04834 0,-0.09869 0.002,-0.145022 1.550929,0.860061 3.325433,1.379723 5.210718,1.438134 -3.085744,-2.06052 -5.118065,-5.585358 -5.118065,-9.57749 0,-2.110874 0.565988,-4.088812 1.556971,-5.788792 5.673983,6.965081 14.157766,11.545357 23.721157,12.028764 -0.197391,-0.843947 -0.296086,-1.720121 -0.296086,-2.624494 0,-6.354781 5.152307,-11.509102 11.507087,-11.509102 3.311334,0 6.298382,1.39785 8.401201,3.633605 2.624494,-0.515633 5.081809,-1.470361 7.311523,-2.793686 -0.866105,2.688948 -2.684921,4.942831 -5.067712,6.36888 2.330422,-0.277958 4.554091,-0.894301 6.610583,-1.81076 -1.534816,2.304237 -3.486569,4.332531 -5.736423,5.949927 z"
     id="bird" fill="#ff0000">
  </path>
</svg>
