<?xml version="1.0" encoding="UTF-8" standalone="no"?>
<svg
   xmlns:dc="http://purl.org/dc/elements/1.1/"
   xmlns:cc="http://creativecommons.org/ns#"
   xmlns:rdf="http://www.w3.org/1999/02/22-rdf-syntax-ns#"
   xmlns:svg="http://www.w3.org/2000/svg"
   xmlns="http://www.w3.org/2000/svg"
   version="1.1"
   width="100%"
   height="100%"
   viewBox="0 0 100 100"
   id="youtube_btn">
  <defs
     id="defs" />
  <circle
     cx="50"
     cy="50"
     r="50"
     id="bg"
     fill="#000000">
  </circle>
  <path
     d="m 43.463202,41.786965 -0.0028,17.790981 17.109229,-8.926095 -17.106415,-8.864886 z m 37.565304,20.873288 c 0,0 -0.619134,4.363493 -2.518049,6.285625 -2.406887,2.521568 -5.106456,2.533528 -6.344022,2.681277 C 63.305771,72.2681 50.014071,72.2681 50.014071,72.2681 l -0.02814,0 c 0,0 -13.290996,0 -22.152364,-0.640945 -1.237566,-0.147749 -3.935728,-0.159709 -6.344022,-2.681277 -1.898915,-1.922132 -2.516642,-6.285625 -2.516642,-6.285625 0,0 -0.633206,-5.124045 -0.633206,-10.24809 l 0,-4.804627 c 0,-5.123341 0.633206,-10.247385 0.633206,-10.247385 0,0 0.617727,-4.363494 2.516642,-6.285626 2.408294,-2.522271 5.572214,-2.441362 6.981449,-2.705901 C 33.537345,27.882462 50,27.7319 50,27.7319 c 0,0 13.305771,0.0204 22.166435,0.660645 1.237566,0.147748 3.937135,0.159709 6.344022,2.68198 1.898915,1.922132 2.518049,6.285626 2.518049,6.285626 0,0 0.631799,5.124044 0.631799,10.247385 l 0,4.804627 c 0,5.124045 -0.631799,10.24809 -0.631799,10.24809"
     id="tube" fill="#ffffff">
     <set
        attributeName="fill" to="#ff0000" begin="btn.mouseover" end="btn.mouseout"/>
  </path>
  <circle
     cx="50"
     cy="50"
     r="50"
     id="btn"
     fill="#ffffff"
     opacity="0">
  </circle>
</svg>
